<mxfile host="app.diagrams.net" modified="2021-01-21T01:36:29.382Z" agent="5.0 (Windows)" etag="dJqFpB0wNHSaEiFAMvWb" version="14.2.6" type="github">
  <diagram id="Xt-xnnDFV80CEgQrNC_6" name="Page-1">
    <mxGraphModel dx="1108" dy="620" grid="1" gridSize="10" guides="1" tooltips="1" connect="1" arrows="1" fold="1" page="1" pageScale="1" pageWidth="827" pageHeight="1169" math="0" shadow="0">
      <root>
        <mxCell id="0" />
        <mxCell id="1" parent="0" />
        <mxCell id="vg7db7qcrDWaZR1GCwfs-95" value="" style="rounded=0;whiteSpace=wrap;html=1;" vertex="1" parent="1">
          <mxGeometry x="260" y="730" width="500" height="480" as="geometry" />
        </mxCell>
        <mxCell id="vg7db7qcrDWaZR1GCwfs-61" value="" style="rounded=0;whiteSpace=wrap;html=1;" vertex="1" parent="1">
          <mxGeometry x="120" y="75" width="500" height="415" as="geometry" />
        </mxCell>
        <mxCell id="vg7db7qcrDWaZR1GCwfs-63" style="edgeStyle=orthogonalEdgeStyle;rounded=0;orthogonalLoop=1;jettySize=auto;html=1;" edge="1" parent="1" source="vg7db7qcrDWaZR1GCwfs-1" target="vg7db7qcrDWaZR1GCwfs-46">
          <mxGeometry relative="1" as="geometry">
            <Array as="points">
              <mxPoint x="100" y="328" />
              <mxPoint x="100" y="208" />
            </Array>
          </mxGeometry>
        </mxCell>
        <mxCell id="vg7db7qcrDWaZR1GCwfs-66" style="edgeStyle=orthogonalEdgeStyle;rounded=0;orthogonalLoop=1;jettySize=auto;html=1;" edge="1" parent="1" source="vg7db7qcrDWaZR1GCwfs-1" target="vg7db7qcrDWaZR1GCwfs-52">
          <mxGeometry relative="1" as="geometry" />
        </mxCell>
        <mxCell id="vg7db7qcrDWaZR1GCwfs-70" style="edgeStyle=orthogonalEdgeStyle;rounded=0;orthogonalLoop=1;jettySize=auto;html=1;entryX=0;entryY=0.5;entryDx=0;entryDy=0;entryPerimeter=0;" edge="1" parent="1" source="vg7db7qcrDWaZR1GCwfs-1" target="vg7db7qcrDWaZR1GCwfs-68">
          <mxGeometry relative="1" as="geometry" />
        </mxCell>
        <mxCell id="vg7db7qcrDWaZR1GCwfs-1" value="Actor" style="shape=umlActor;verticalLabelPosition=bottom;verticalAlign=top;html=1;outlineConnect=0;" vertex="1" parent="1">
          <mxGeometry x="30" y="297.5" width="30" height="60" as="geometry" />
        </mxCell>
        <mxCell id="vg7db7qcrDWaZR1GCwfs-2" value="PC" style="fontColor=#0066CC;verticalAlign=top;verticalLabelPosition=bottom;labelPosition=center;align=center;html=1;outlineConnect=0;fillColor=#CCCCCC;strokeColor=#6881B3;gradientColor=none;gradientDirection=north;strokeWidth=2;shape=mxgraph.networks.pc;" vertex="1" parent="1">
          <mxGeometry x="140" y="90" width="60" height="50" as="geometry" />
        </mxCell>
        <mxCell id="vg7db7qcrDWaZR1GCwfs-21" value="" style="group" vertex="1" connectable="0" parent="1">
          <mxGeometry x="662" y="320" width="130" height="55" as="geometry" />
        </mxCell>
        <mxCell id="vg7db7qcrDWaZR1GCwfs-11" value="" style="group" vertex="1" connectable="0" parent="vg7db7qcrDWaZR1GCwfs-21">
          <mxGeometry width="130" height="30" as="geometry" />
        </mxCell>
        <mxCell id="vg7db7qcrDWaZR1GCwfs-4" value="" style="rounded=1;whiteSpace=wrap;html=1;" vertex="1" parent="vg7db7qcrDWaZR1GCwfs-11">
          <mxGeometry width="130" height="30" as="geometry" />
        </mxCell>
        <mxCell id="vg7db7qcrDWaZR1GCwfs-5" value="" style="ellipse;whiteSpace=wrap;html=1;aspect=fixed;" vertex="1" parent="vg7db7qcrDWaZR1GCwfs-11">
          <mxGeometry x="10" y="5" width="20" height="20" as="geometry" />
        </mxCell>
        <mxCell id="vg7db7qcrDWaZR1GCwfs-6" value="" style="ellipse;whiteSpace=wrap;html=1;aspect=fixed;" vertex="1" parent="vg7db7qcrDWaZR1GCwfs-11">
          <mxGeometry x="40" y="5" width="20" height="20" as="geometry" />
        </mxCell>
        <mxCell id="vg7db7qcrDWaZR1GCwfs-7" value="" style="ellipse;whiteSpace=wrap;html=1;aspect=fixed;" vertex="1" parent="vg7db7qcrDWaZR1GCwfs-11">
          <mxGeometry x="70" y="5" width="20" height="20" as="geometry" />
        </mxCell>
        <mxCell id="vg7db7qcrDWaZR1GCwfs-8" value="" style="ellipse;whiteSpace=wrap;html=1;aspect=fixed;" vertex="1" parent="vg7db7qcrDWaZR1GCwfs-11">
          <mxGeometry x="100" y="5" width="20" height="20" as="geometry" />
        </mxCell>
        <mxCell id="vg7db7qcrDWaZR1GCwfs-17" value="采集设备" style="text;html=1;strokeColor=none;fillColor=none;align=center;verticalAlign=middle;whiteSpace=wrap;rounded=0;" vertex="1" parent="vg7db7qcrDWaZR1GCwfs-21">
          <mxGeometry x="40" y="35" width="50" height="20" as="geometry" />
        </mxCell>
        <mxCell id="vg7db7qcrDWaZR1GCwfs-48" value="" style="edgeStyle=orthogonalEdgeStyle;rounded=0;orthogonalLoop=1;jettySize=auto;html=1;" edge="1" parent="1" source="vg7db7qcrDWaZR1GCwfs-46" target="vg7db7qcrDWaZR1GCwfs-47">
          <mxGeometry relative="1" as="geometry" />
        </mxCell>
        <mxCell id="vg7db7qcrDWaZR1GCwfs-46" value="LabGenius" style="pointerEvents=1;shadow=0;dashed=0;html=1;strokeColor=none;fillColor=#434445;aspect=fixed;labelPosition=center;verticalLabelPosition=bottom;verticalAlign=top;align=center;outlineConnect=0;shape=mxgraph.vvd.web_browser;" vertex="1" parent="1">
          <mxGeometry x="325" y="190" width="50" height="35.5" as="geometry" />
        </mxCell>
        <mxCell id="vg7db7qcrDWaZR1GCwfs-65" style="edgeStyle=orthogonalEdgeStyle;rounded=0;orthogonalLoop=1;jettySize=auto;html=1;entryX=0;entryY=0.5;entryDx=0;entryDy=0;" edge="1" parent="1" source="vg7db7qcrDWaZR1GCwfs-47" target="vg7db7qcrDWaZR1GCwfs-4">
          <mxGeometry relative="1" as="geometry" />
        </mxCell>
        <mxCell id="vg7db7qcrDWaZR1GCwfs-47" value="Driver" style="shape=image;html=1;verticalAlign=top;verticalLabelPosition=bottom;labelBackgroundColor=#ffffff;imageAspect=0;aspect=fixed;image=https://cdn4.iconfinder.com/data/icons/social-media-logos-6/512/16-uber_car_driver-128.png" vertex="1" parent="1">
          <mxGeometry x="445" y="192.75" width="30" height="30" as="geometry" />
        </mxCell>
        <mxCell id="vg7db7qcrDWaZR1GCwfs-56" value="" style="edgeStyle=orthogonalEdgeStyle;rounded=0;orthogonalLoop=1;jettySize=auto;html=1;" edge="1" parent="1" source="vg7db7qcrDWaZR1GCwfs-52" target="vg7db7qcrDWaZR1GCwfs-54">
          <mxGeometry relative="1" as="geometry" />
        </mxCell>
        <mxCell id="vg7db7qcrDWaZR1GCwfs-73" value="TCP/IP" style="edgeLabel;html=1;align=center;verticalAlign=middle;resizable=0;points=[];" vertex="1" connectable="0" parent="vg7db7qcrDWaZR1GCwfs-56">
          <mxGeometry x="-0.3061" y="2" relative="1" as="geometry">
            <mxPoint y="-13" as="offset" />
          </mxGeometry>
        </mxCell>
        <mxCell id="vg7db7qcrDWaZR1GCwfs-52" value="第三方软件" style="pointerEvents=1;shadow=0;dashed=0;html=1;strokeColor=none;labelPosition=center;verticalLabelPosition=bottom;verticalAlign=top;align=center;fillColor=#505050;shape=mxgraph.mscae.intune.detected_software" vertex="1" parent="1">
          <mxGeometry x="210" y="270" width="50" height="50" as="geometry" />
        </mxCell>
        <mxCell id="vg7db7qcrDWaZR1GCwfs-53" value="" style="edgeStyle=orthogonalEdgeStyle;rounded=0;orthogonalLoop=1;jettySize=auto;html=1;" edge="1" parent="1" source="vg7db7qcrDWaZR1GCwfs-54" target="vg7db7qcrDWaZR1GCwfs-55">
          <mxGeometry relative="1" as="geometry" />
        </mxCell>
        <mxCell id="vg7db7qcrDWaZR1GCwfs-54" value="LabGenius" style="pointerEvents=1;shadow=0;dashed=0;html=1;strokeColor=none;fillColor=#434445;aspect=fixed;labelPosition=center;verticalLabelPosition=bottom;verticalAlign=top;align=center;outlineConnect=0;shape=mxgraph.vvd.web_browser;" vertex="1" parent="1">
          <mxGeometry x="325" y="277.25" width="50" height="35.5" as="geometry" />
        </mxCell>
        <mxCell id="vg7db7qcrDWaZR1GCwfs-67" style="edgeStyle=orthogonalEdgeStyle;rounded=0;orthogonalLoop=1;jettySize=auto;html=1;entryX=0;entryY=0.5;entryDx=0;entryDy=0;" edge="1" parent="1" source="vg7db7qcrDWaZR1GCwfs-55" target="vg7db7qcrDWaZR1GCwfs-4">
          <mxGeometry relative="1" as="geometry" />
        </mxCell>
        <mxCell id="vg7db7qcrDWaZR1GCwfs-55" value="Driver" style="shape=image;html=1;verticalAlign=top;verticalLabelPosition=bottom;labelBackgroundColor=#ffffff;imageAspect=0;aspect=fixed;image=https://cdn4.iconfinder.com/data/icons/social-media-logos-6/512/16-uber_car_driver-128.png" vertex="1" parent="1">
          <mxGeometry x="445" y="280" width="30" height="30" as="geometry" />
        </mxCell>
        <mxCell id="vg7db7qcrDWaZR1GCwfs-71" style="edgeStyle=orthogonalEdgeStyle;rounded=0;orthogonalLoop=1;jettySize=auto;html=1;" edge="1" parent="1" source="vg7db7qcrDWaZR1GCwfs-68" target="vg7db7qcrDWaZR1GCwfs-69">
          <mxGeometry relative="1" as="geometry" />
        </mxCell>
        <mxCell id="vg7db7qcrDWaZR1GCwfs-68" value="第三方软件" style="pointerEvents=1;shadow=0;dashed=0;html=1;strokeColor=none;labelPosition=center;verticalLabelPosition=bottom;verticalAlign=top;align=center;fillColor=#505050;shape=mxgraph.mscae.intune.detected_software" vertex="1" parent="1">
          <mxGeometry x="210" y="375" width="50" height="50" as="geometry" />
        </mxCell>
        <mxCell id="vg7db7qcrDWaZR1GCwfs-72" style="edgeStyle=orthogonalEdgeStyle;rounded=0;orthogonalLoop=1;jettySize=auto;html=1;entryX=0;entryY=0.5;entryDx=0;entryDy=0;" edge="1" parent="1" source="vg7db7qcrDWaZR1GCwfs-69" target="vg7db7qcrDWaZR1GCwfs-4">
          <mxGeometry relative="1" as="geometry" />
        </mxCell>
        <mxCell id="vg7db7qcrDWaZR1GCwfs-69" value="Driver" style="shape=image;html=1;verticalAlign=top;verticalLabelPosition=bottom;labelBackgroundColor=#ffffff;imageAspect=0;aspect=fixed;image=https://cdn4.iconfinder.com/data/icons/social-media-logos-6/512/16-uber_car_driver-128.png" vertex="1" parent="1">
          <mxGeometry x="445" y="385" width="30" height="30" as="geometry" />
        </mxCell>
        <mxCell id="vg7db7qcrDWaZR1GCwfs-74" value="&lt;font style=&quot;font-size: 19px&quot;&gt;用例1： 使用PC进行测试测量&lt;/font&gt;" style="text;html=1;strokeColor=none;fillColor=none;align=center;verticalAlign=middle;whiteSpace=wrap;rounded=0;" vertex="1" parent="1">
          <mxGeometry x="30" y="30" width="270" height="20" as="geometry" />
        </mxCell>
        <mxCell id="vg7db7qcrDWaZR1GCwfs-75" value="&lt;font style=&quot;font-size: 19px&quot;&gt;用例2： 直接使用测试设备进行测试测量&lt;/font&gt;" style="text;html=1;strokeColor=none;fillColor=none;align=center;verticalAlign=middle;whiteSpace=wrap;rounded=0;" vertex="1" parent="1">
          <mxGeometry x="40" y="650" width="370" height="20" as="geometry" />
        </mxCell>
        <mxCell id="vg7db7qcrDWaZR1GCwfs-85" value="" style="group" vertex="1" connectable="0" parent="1">
          <mxGeometry x="280" y="750" width="130" height="55" as="geometry" />
        </mxCell>
        <mxCell id="vg7db7qcrDWaZR1GCwfs-86" value="" style="group" vertex="1" connectable="0" parent="vg7db7qcrDWaZR1GCwfs-85">
          <mxGeometry width="130" height="30" as="geometry" />
        </mxCell>
        <mxCell id="vg7db7qcrDWaZR1GCwfs-87" value="" style="rounded=1;whiteSpace=wrap;html=1;" vertex="1" parent="vg7db7qcrDWaZR1GCwfs-86">
          <mxGeometry width="130" height="30" as="geometry" />
        </mxCell>
        <mxCell id="vg7db7qcrDWaZR1GCwfs-88" value="" style="ellipse;whiteSpace=wrap;html=1;aspect=fixed;" vertex="1" parent="vg7db7qcrDWaZR1GCwfs-86">
          <mxGeometry x="10" y="5" width="20" height="20" as="geometry" />
        </mxCell>
        <mxCell id="vg7db7qcrDWaZR1GCwfs-89" value="" style="ellipse;whiteSpace=wrap;html=1;aspect=fixed;" vertex="1" parent="vg7db7qcrDWaZR1GCwfs-86">
          <mxGeometry x="40" y="5" width="20" height="20" as="geometry" />
        </mxCell>
        <mxCell id="vg7db7qcrDWaZR1GCwfs-90" value="" style="ellipse;whiteSpace=wrap;html=1;aspect=fixed;" vertex="1" parent="vg7db7qcrDWaZR1GCwfs-86">
          <mxGeometry x="70" y="5" width="20" height="20" as="geometry" />
        </mxCell>
        <mxCell id="vg7db7qcrDWaZR1GCwfs-91" value="" style="ellipse;whiteSpace=wrap;html=1;aspect=fixed;" vertex="1" parent="vg7db7qcrDWaZR1GCwfs-86">
          <mxGeometry x="100" y="5" width="20" height="20" as="geometry" />
        </mxCell>
        <mxCell id="vg7db7qcrDWaZR1GCwfs-92" value="采集设备" style="text;html=1;strokeColor=none;fillColor=none;align=center;verticalAlign=middle;whiteSpace=wrap;rounded=0;" vertex="1" parent="vg7db7qcrDWaZR1GCwfs-85">
          <mxGeometry x="40" y="35" width="50" height="20" as="geometry" />
        </mxCell>
        <mxCell id="vg7db7qcrDWaZR1GCwfs-97" style="edgeStyle=orthogonalEdgeStyle;rounded=0;orthogonalLoop=1;jettySize=auto;html=1;" edge="1" parent="1" source="vg7db7qcrDWaZR1GCwfs-93" target="vg7db7qcrDWaZR1GCwfs-96">
          <mxGeometry relative="1" as="geometry" />
        </mxCell>
        <mxCell id="vg7db7qcrDWaZR1GCwfs-107" style="edgeStyle=orthogonalEdgeStyle;rounded=0;orthogonalLoop=1;jettySize=auto;html=1;" edge="1" parent="1" source="vg7db7qcrDWaZR1GCwfs-93" target="vg7db7qcrDWaZR1GCwfs-106">
          <mxGeometry relative="1" as="geometry" />
        </mxCell>
        <mxCell id="vg7db7qcrDWaZR1GCwfs-93" value="Actor" style="shape=umlActor;verticalLabelPosition=bottom;verticalAlign=top;html=1;" vertex="1" parent="1">
          <mxGeometry x="40" y="940" width="30" height="60" as="geometry" />
        </mxCell>
        <mxCell id="vg7db7qcrDWaZR1GCwfs-100" value="" style="edgeStyle=orthogonalEdgeStyle;rounded=0;orthogonalLoop=1;jettySize=auto;html=1;" edge="1" parent="1" source="vg7db7qcrDWaZR1GCwfs-96" target="vg7db7qcrDWaZR1GCwfs-99">
          <mxGeometry relative="1" as="geometry" />
        </mxCell>
        <mxCell id="vg7db7qcrDWaZR1GCwfs-96" value="LabGenius" style="pointerEvents=1;shadow=0;dashed=0;html=1;strokeColor=none;fillColor=#434445;aspect=fixed;labelPosition=center;verticalLabelPosition=bottom;verticalAlign=top;align=center;outlineConnect=0;shape=mxgraph.vvd.web_browser;" vertex="1" parent="1">
          <mxGeometry x="130" y="830" width="50" height="35.5" as="geometry" />
        </mxCell>
        <mxCell id="vg7db7qcrDWaZR1GCwfs-112" style="edgeStyle=orthogonalEdgeStyle;rounded=0;orthogonalLoop=1;jettySize=auto;html=1;entryX=0.475;entryY=0;entryDx=0;entryDy=0;entryPerimeter=0;" edge="1" parent="1" source="vg7db7qcrDWaZR1GCwfs-98" target="vg7db7qcrDWaZR1GCwfs-111">
          <mxGeometry relative="1" as="geometry" />
        </mxCell>
        <mxCell id="vg7db7qcrDWaZR1GCwfs-98" value="测试程序" style="aspect=fixed;perimeter=ellipsePerimeter;html=1;align=center;shadow=0;dashed=0;fontColor=#4277BB;labelBackgroundColor=#ffffff;fontSize=12;spacingTop=3;image;image=img/lib/ibm/management/process_management.svg;" vertex="1" parent="1">
          <mxGeometry x="470" y="817.75" width="60" height="60" as="geometry" />
        </mxCell>
        <mxCell id="vg7db7qcrDWaZR1GCwfs-101" style="edgeStyle=orthogonalEdgeStyle;rounded=0;orthogonalLoop=1;jettySize=auto;html=1;" edge="1" parent="1" source="vg7db7qcrDWaZR1GCwfs-99" target="vg7db7qcrDWaZR1GCwfs-98">
          <mxGeometry relative="1" as="geometry" />
        </mxCell>
        <mxCell id="vg7db7qcrDWaZR1GCwfs-99" value="Driver" style="shape=image;html=1;verticalAlign=top;verticalLabelPosition=bottom;labelBackgroundColor=#ffffff;imageAspect=0;aspect=fixed;image=https://cdn4.iconfinder.com/data/icons/social-media-logos-6/512/16-uber_car_driver-128.png" vertex="1" parent="1">
          <mxGeometry x="220" y="832.75" width="30" height="30" as="geometry" />
        </mxCell>
        <mxCell id="vg7db7qcrDWaZR1GCwfs-104" style="edgeStyle=orthogonalEdgeStyle;rounded=0;orthogonalLoop=1;jettySize=auto;html=1;" edge="1" parent="1" source="vg7db7qcrDWaZR1GCwfs-102" target="vg7db7qcrDWaZR1GCwfs-103">
          <mxGeometry relative="1" as="geometry" />
        </mxCell>
        <mxCell id="vg7db7qcrDWaZR1GCwfs-102" value="" style="aspect=fixed;perimeter=ellipsePerimeter;html=1;align=center;shadow=0;dashed=0;spacingTop=3;image;image=img/lib/active_directory/web_server.svg;" vertex="1" parent="1">
          <mxGeometry x="350" y="1046" width="40" height="50" as="geometry" />
        </mxCell>
        <mxCell id="vg7db7qcrDWaZR1GCwfs-113" style="edgeStyle=orthogonalEdgeStyle;rounded=0;orthogonalLoop=1;jettySize=auto;html=1;" edge="1" parent="1" source="vg7db7qcrDWaZR1GCwfs-103">
          <mxGeometry relative="1" as="geometry">
            <mxPoint x="622" y="1010" as="targetPoint" />
          </mxGeometry>
        </mxCell>
        <mxCell id="vg7db7qcrDWaZR1GCwfs-103" value="测试程序" style="aspect=fixed;perimeter=ellipsePerimeter;html=1;align=center;shadow=0;dashed=0;fontColor=#4277BB;labelBackgroundColor=#ffffff;fontSize=12;spacingTop=3;image;image=img/lib/ibm/management/process_management.svg;" vertex="1" parent="1">
          <mxGeometry x="475" y="1041" width="60" height="60" as="geometry" />
        </mxCell>
        <mxCell id="vg7db7qcrDWaZR1GCwfs-108" style="edgeStyle=orthogonalEdgeStyle;rounded=0;orthogonalLoop=1;jettySize=auto;html=1;entryX=0;entryY=0.75;entryDx=0;entryDy=0;" edge="1" parent="1" source="vg7db7qcrDWaZR1GCwfs-106" target="vg7db7qcrDWaZR1GCwfs-102">
          <mxGeometry relative="1" as="geometry" />
        </mxCell>
        <mxCell id="vg7db7qcrDWaZR1GCwfs-106" value="browser" style="aspect=fixed;html=1;points=[];align=center;image;fontSize=12;image=img/lib/azure2/general/Browser.svg;" vertex="1" parent="1">
          <mxGeometry x="122.5" y="1055" width="65" height="52" as="geometry" />
        </mxCell>
        <mxCell id="vg7db7qcrDWaZR1GCwfs-109" style="edgeStyle=orthogonalEdgeStyle;rounded=0;orthogonalLoop=1;jettySize=auto;html=1;entryX=0.459;entryY=0.999;entryDx=0;entryDy=0;entryPerimeter=0;" edge="1" parent="1" source="vg7db7qcrDWaZR1GCwfs-17" target="vg7db7qcrDWaZR1GCwfs-61">
          <mxGeometry relative="1" as="geometry">
            <Array as="points">
              <mxPoint x="727" y="540" />
              <mxPoint x="350" y="540" />
            </Array>
          </mxGeometry>
        </mxCell>
        <mxCell id="vg7db7qcrDWaZR1GCwfs-110" value="数据实时回传" style="edgeLabel;html=1;align=center;verticalAlign=middle;resizable=0;points=[];" vertex="1" connectable="0" parent="vg7db7qcrDWaZR1GCwfs-109">
          <mxGeometry x="0.0637" y="-4" relative="1" as="geometry">
            <mxPoint y="-6" as="offset" />
          </mxGeometry>
        </mxCell>
        <mxCell id="vg7db7qcrDWaZR1GCwfs-111" value="数据库/文件系统" style="html=1;verticalLabelPosition=bottom;align=center;labelBackgroundColor=#ffffff;verticalAlign=top;strokeWidth=2;strokeColor=#0080F0;shadow=0;dashed=0;shape=mxgraph.ios7.icons.data;" vertex="1" parent="1">
          <mxGeometry x="610" y="960" width="24" height="29.099999999999998" as="geometry" />
        </mxCell>
        <mxCell id="vg7db7qcrDWaZR1GCwfs-114" value="&lt;font style=&quot;font-size: 19px&quot;&gt;用例3： 直接使用测试设备并于管理系统/云平台集成&lt;/font&gt;" style="text;html=1;strokeColor=none;fillColor=none;align=center;verticalAlign=middle;whiteSpace=wrap;rounded=0;" vertex="1" parent="1">
          <mxGeometry x="40" y="1280" width="460" height="20" as="geometry" />
        </mxCell>
        <mxCell id="vg7db7qcrDWaZR1GCwfs-118" value="" style="edgeStyle=orthogonalEdgeStyle;rounded=0;orthogonalLoop=1;jettySize=auto;html=1;" edge="1" parent="1" source="vg7db7qcrDWaZR1GCwfs-115" target="vg7db7qcrDWaZR1GCwfs-117">
          <mxGeometry relative="1" as="geometry" />
        </mxCell>
        <mxCell id="vg7db7qcrDWaZR1GCwfs-115" value="Actor" style="shape=umlActor;verticalLabelPosition=bottom;verticalAlign=top;html=1;" vertex="1" parent="1">
          <mxGeometry x="50" y="1460" width="30" height="60" as="geometry" />
        </mxCell>
        <mxCell id="vg7db7qcrDWaZR1GCwfs-117" value="Cloud" style="html=1;strokeColor=none;fillColor=#0079D6;labelPosition=center;verticalLabelPosition=middle;verticalAlign=top;align=center;fontSize=12;outlineConnect=0;spacingTop=-6;fontColor=#FFFFFF;shape=mxgraph.sitemap.cloud;" vertex="1" parent="1">
          <mxGeometry x="130" y="1455" width="120" height="70" as="geometry" />
        </mxCell>
        <mxCell id="vg7db7qcrDWaZR1GCwfs-119" value="" style="rounded=0;whiteSpace=wrap;html=1;" vertex="1" parent="1">
          <mxGeometry x="290" y="1350" width="500" height="320" as="geometry" />
        </mxCell>
        <mxCell id="vg7db7qcrDWaZR1GCwfs-120" value="" style="group" vertex="1" connectable="0" parent="1">
          <mxGeometry x="310" y="1370" width="130" height="55" as="geometry" />
        </mxCell>
        <mxCell id="vg7db7qcrDWaZR1GCwfs-121" value="" style="group" vertex="1" connectable="0" parent="vg7db7qcrDWaZR1GCwfs-120">
          <mxGeometry width="130" height="30" as="geometry" />
        </mxCell>
        <mxCell id="vg7db7qcrDWaZR1GCwfs-122" value="" style="rounded=1;whiteSpace=wrap;html=1;" vertex="1" parent="vg7db7qcrDWaZR1GCwfs-121">
          <mxGeometry width="130" height="30" as="geometry" />
        </mxCell>
        <mxCell id="vg7db7qcrDWaZR1GCwfs-123" value="" style="ellipse;whiteSpace=wrap;html=1;aspect=fixed;" vertex="1" parent="vg7db7qcrDWaZR1GCwfs-121">
          <mxGeometry x="10" y="5" width="20" height="20" as="geometry" />
        </mxCell>
        <mxCell id="vg7db7qcrDWaZR1GCwfs-124" value="" style="ellipse;whiteSpace=wrap;html=1;aspect=fixed;" vertex="1" parent="vg7db7qcrDWaZR1GCwfs-121">
          <mxGeometry x="40" y="5" width="20" height="20" as="geometry" />
        </mxCell>
        <mxCell id="vg7db7qcrDWaZR1GCwfs-125" value="" style="ellipse;whiteSpace=wrap;html=1;aspect=fixed;" vertex="1" parent="vg7db7qcrDWaZR1GCwfs-121">
          <mxGeometry x="70" y="5" width="20" height="20" as="geometry" />
        </mxCell>
        <mxCell id="vg7db7qcrDWaZR1GCwfs-126" value="" style="ellipse;whiteSpace=wrap;html=1;aspect=fixed;" vertex="1" parent="vg7db7qcrDWaZR1GCwfs-121">
          <mxGeometry x="100" y="5" width="20" height="20" as="geometry" />
        </mxCell>
        <mxCell id="vg7db7qcrDWaZR1GCwfs-127" value="采集设备" style="text;html=1;strokeColor=none;fillColor=none;align=center;verticalAlign=middle;whiteSpace=wrap;rounded=0;" vertex="1" parent="vg7db7qcrDWaZR1GCwfs-120">
          <mxGeometry x="40" y="35" width="50" height="20" as="geometry" />
        </mxCell>
        <mxCell id="vg7db7qcrDWaZR1GCwfs-128" style="edgeStyle=orthogonalEdgeStyle;rounded=0;orthogonalLoop=1;jettySize=auto;html=1;entryX=0.475;entryY=0;entryDx=0;entryDy=0;entryPerimeter=0;" edge="1" parent="1" source="vg7db7qcrDWaZR1GCwfs-129" target="vg7db7qcrDWaZR1GCwfs-135">
          <mxGeometry relative="1" as="geometry" />
        </mxCell>
        <mxCell id="vg7db7qcrDWaZR1GCwfs-129" value="测试程序" style="aspect=fixed;perimeter=ellipsePerimeter;html=1;align=center;shadow=0;dashed=0;fontColor=#4277BB;labelBackgroundColor=#ffffff;fontSize=12;spacingTop=3;image;image=img/lib/ibm/management/process_management.svg;" vertex="1" parent="1">
          <mxGeometry x="500" y="1460" width="60" height="60" as="geometry" />
        </mxCell>
        <mxCell id="vg7db7qcrDWaZR1GCwfs-130" style="edgeStyle=orthogonalEdgeStyle;rounded=0;orthogonalLoop=1;jettySize=auto;html=1;exitX=1;exitY=0.5;exitDx=0;exitDy=0;exitPerimeter=0;" edge="1" parent="1" target="vg7db7qcrDWaZR1GCwfs-129" source="vg7db7qcrDWaZR1GCwfs-137">
          <mxGeometry relative="1" as="geometry">
            <mxPoint x="280" y="1467.7499999999998" as="sourcePoint" />
          </mxGeometry>
        </mxCell>
        <mxCell id="vg7db7qcrDWaZR1GCwfs-136" style="edgeStyle=orthogonalEdgeStyle;rounded=0;orthogonalLoop=1;jettySize=auto;html=1;" edge="1" parent="1" source="vg7db7qcrDWaZR1GCwfs-135" target="vg7db7qcrDWaZR1GCwfs-137">
          <mxGeometry relative="1" as="geometry" />
        </mxCell>
        <mxCell id="vg7db7qcrDWaZR1GCwfs-135" value="数据库/文件系统" style="html=1;verticalLabelPosition=bottom;align=center;labelBackgroundColor=#ffffff;verticalAlign=top;strokeWidth=2;strokeColor=#0080F0;shadow=0;dashed=0;shape=mxgraph.ios7.icons.data;" vertex="1" parent="1">
          <mxGeometry x="518" y="1590" width="24" height="29.099999999999998" as="geometry" />
        </mxCell>
        <mxCell id="vg7db7qcrDWaZR1GCwfs-139" style="edgeStyle=orthogonalEdgeStyle;rounded=0;orthogonalLoop=1;jettySize=auto;html=1;" edge="1" parent="1" source="vg7db7qcrDWaZR1GCwfs-137" target="vg7db7qcrDWaZR1GCwfs-117">
          <mxGeometry relative="1" as="geometry" />
        </mxCell>
        <mxCell id="vg7db7qcrDWaZR1GCwfs-137" value="IoT模块" style="outlineConnect=0;dashed=0;verticalLabelPosition=bottom;verticalAlign=top;align=center;html=1;shape=mxgraph.aws3.servo;fillColor=#5294CF;gradientColor=none;" vertex="1" parent="1">
          <mxGeometry x="340" y="1460" width="84" height="60" as="geometry" />
        </mxCell>
        <mxCell id="vg7db7qcrDWaZR1GCwfs-138" style="edgeStyle=orthogonalEdgeStyle;rounded=0;orthogonalLoop=1;jettySize=auto;html=1;exitX=1;exitY=0.5;exitDx=0;exitDy=0;exitPerimeter=0;" edge="1" parent="1" source="vg7db7qcrDWaZR1GCwfs-117" target="vg7db7qcrDWaZR1GCwfs-137">
          <mxGeometry relative="1" as="geometry">
            <mxPoint x="250" y="1490" as="sourcePoint" />
            <mxPoint x="500" y="1490" as="targetPoint" />
          </mxGeometry>
        </mxCell>
      </root>
    </mxGraphModel>
  </diagram>
</mxfile>
